<svg width="1508" height="976" viewBox="0 0 1508 976" fill="none" xmlns="http://www.w3.org/2000/svg">
<rect width="1508" height="976" fill="#AB6FE9"/>
<path d="M413.66 548L445.011 410.909H472.183V440.36H462.682L442.446 548H413.66ZM433.801 519.689L438.266 498.028H487.668L492.134 519.689H433.801ZM483.488 548L463.157 440.36V410.909H480.828L512.274 548H483.488ZM522.725 548V410.909H550.656V548H522.725Z" fill="#141414"/>
<path d="M668.835 504.488V479.977H748.924V504.488H668.835ZM697.052 537.55V446.916H720.613V537.55H697.052Z" fill="#141414"/>
<path opacity="0.6" d="M574.627 338.513C577.375 331.985 586.625 331.985 589.373 338.513L598.216 359.515C599.026 361.441 600.559 362.974 602.485 363.784L623.487 372.627C630.015 375.375 630.015 384.625 623.487 387.373L602.485 396.216C600.559 397.026 599.026 398.559 598.216 400.485L589.373 421.487C586.625 428.015 577.375 428.015 574.627 421.487L565.784 400.485C564.974 398.559 563.441 397.026 561.515 396.216L540.513 387.373C533.985 384.625 533.985 375.375 540.513 372.627L561.515 363.784C563.441 362.974 564.974 361.441 565.784 359.515L574.627 338.513Z" fill="#141414"/>
<path d="M968.158 595.316V560.52L1030.68 498.283C1032.37 496.586 1034.26 495.36 1036.34 494.605C1038.41 493.851 1040.48 493.474 1042.56 493.474C1044.82 493.474 1046.99 493.898 1049.07 494.747C1051.14 495.595 1053.03 496.868 1054.72 498.566L1065.19 509.033C1066.89 510.73 1068.11 512.616 1068.87 514.691C1069.62 516.765 1070 518.84 1070 520.914C1070 522.989 1069.58 525.111 1068.73 527.28C1067.88 529.448 1066.61 531.382 1064.93 533.079L1002.95 595.316H968.158ZM985.132 578.342H995.882L1030.11 543.829L1025.02 538.454L1019.64 533.362L985.132 567.592V578.342ZM871.974 595.316C867.447 595.316 863.487 593.618 860.092 590.224C856.697 586.829 855 582.868 855 578.342V385.974C855 381.447 856.697 377.487 860.092 374.092C863.487 370.697 867.447 369 871.974 369H968.158L1036.05 436.895V469.711H1019.08V448.211H956.842V385.974H871.974V578.342H951.184V595.316H871.974ZM1025.02 538.454L1019.64 533.362L1030.11 543.829L1025.02 538.454Z" fill="#1F1F1F"/>
</svg>
