<svg width="1508" height="976" viewBox="0 0 1508 976" fill="none" xmlns="http://www.w3.org/2000/svg">
<defs>
  <linearGradient id="cyanGradient" x1="0%" y1="0%" x2="100%" y2="100%">
    <stop offset="0%" style="stop-color:#4facfe;stop-opacity:1" />
    <stop offset="100%" style="stop-color:#00f2fe;stop-opacity:1" />
  </linearGradient>
</defs>
<rect width="1508" height="976" fill="url(#cyanGradient)"/>
<circle opacity="0.2" cx="512" cy="488" r="141" fill="#141414" stroke="black" stroke-width="6"/>
<circle cx="610" cy="375" r="46" fill="#141414" stroke="#4facfe" stroke-width="10"/>
<g opacity="0.2">
<circle opacity="0.8" cx="976" cy="488" r="141" fill="#141414" stroke="black" stroke-width="6"/>
</g>
<path opacity="0.6" d="M574.627 338.513C577.375 331.985 586.625 331.985 589.373 338.513L598.216 359.515C599.026 361.441 600.559 362.974 602.485 363.784L623.487 372.627C630.015 375.375 630.015 384.625 623.487 387.373L602.485 396.216C600.559 397.026 599.026 398.559 598.216 400.485L589.373 421.487C586.625 428.015 577.375 428.015 574.627 421.487L565.784 400.485C564.974 398.559 563.441 397.026 561.515 396.216L540.513 387.373C533.985 384.625 533.985 375.375 540.513 372.627L561.515 363.784C563.441 362.974 564.974 361.441 565.784 359.515L574.627 338.513Z" fill="#4facfe"/>
<rect x="852" y="462.469" width="41.6283" height="41.6283" rx="20.8142" transform="rotate(90 852 462.469)" fill="#141414"/>
<rect width="10.4071" height="100.602" transform="translate(819.044 478.08) rotate(90)" fill="#141414"/>
<rect width="10.4071" height="71.115" transform="translate(727.115 478.08) rotate(90)" fill="#141414"/>
<path opacity="0.8" d="M448 548C443.6 548 439.833 546.433 436.7 543.3C433.567 540.167 432 536.4 432 532V436C432 431.6 433.567 427.833 436.7 424.7C439.833 421.567 443.6 420 448 420H496L512 436H576C580.4 436 584.167 437.567 587.3 440.7C590.433 443.833 592 447.6 592 452V532C592 536.4 590.433 540.167 587.3 543.3C584.167 546.433 580.4 548 576 548H448ZM448 532H576V452H505.4L489.4 436H448V532Z" fill="#1F1F1F"/>
<path opacity="0.8" d="M912 548C907.6 548 903.833 546.433 900.7 543.3C897.567 540.167 896 536.4 896 532V436C896 431.6 897.567 427.833 900.7 424.7C903.833 421.567 907.6 420 912 420H960L976 436H1040C1044.4 436 1048.17 437.567 1051.3 440.7C1054.43 443.833 1056 447.6 1056 452V532C1056 536.4 1054.43 540.167 1051.3 543.3C1048.17 546.433 1044.4 548 1040 548H912ZM912 532H1040V452H969.4L953.4 436H912V532Z" fill="#1F1F1F"/>
</svg>
