<svg width="1508" height="976" viewBox="0 0 1508 976" fill="none" xmlns="http://www.w3.org/2000/svg">
<defs>
  <linearGradient id="cyanGradient" x1="0%" y1="0%" x2="100%" y2="100%">
    <stop offset="0%" style="stop-color:#4facfe;stop-opacity:1" />
    <stop offset="100%" style="stop-color:#00f2fe;stop-opacity:1" />
  </linearGradient>
</defs>
<rect width="1508" height="976" fill="url(#cyanGradient)"/>

<!-- Left documentation circle background -->
<circle opacity="0.2" cx="407" cy="488" r="180" fill="#1F1F1F"/>

<!-- Right AI circle background -->
<circle opacity="0.2" cx="1101" cy="488" r="180" fill="#1F1F1F"/>

<!-- Number badge circle -->
<circle cx="477" cy="254" r="46" fill="#141414" stroke="#4facfe" stroke-width="10"/>

<!-- Number 160+ displayed as "160" -->
<text x="442" y="272" font-family="system-ui, -apple-system" font-size="26" font-weight="700" fill="#4facfe">160</text>

<!-- Left document icon -->
<g opacity="0.9">
  <rect x="327" y="428" width="160" height="120" rx="8" fill="#1F1F1F"/>
  <rect x="347" y="448" width="120" height="8" rx="4" fill="#4facfe" opacity="0.6"/>
  <rect x="347" y="468" width="100" height="8" rx="4" fill="#4facfe" opacity="0.5"/>
  <rect x="347" y="488" width="110" height="8" rx="4" fill="#4facfe" opacity="0.5"/>
  <rect x="347" y="508" width="90" height="8" rx="4" fill="#4facfe" opacity="0.5"/>
  <rect x="347" y="528" width="100" height="8" rx="4" fill="#4facfe" opacity="0.4"/>
</g>

<!-- Right AI sparkle icon -->
<g opacity="0.9">
  <circle cx="1081" cy="488" r="60" fill="#1F1F1F"/>
  <!-- AI sparkle/star -->
  <path d="M1081 438L1086.5 463L1111.5 468.5L1086.5 474L1081 499L1075.5 474L1050.5 468.5L1075.5 463L1081 438Z" fill="#4facfe"/>
  <path d="M1061 458L1064 471L1077 474L1064 477L1061 490L1058 477L1045 474L1058 471L1061 458Z" fill="#4facfe" opacity="0.6"/>
  <path d="M1101 458L1104 471L1117 474L1104 477L1101 490L1098 477L1085 474L1098 471L1101 458Z" fill="#4facfe" opacity="0.6"/>
</g>

<!-- Connection line -->
<rect x="487" y="483" width="514" height="10" rx="5" fill="#1F1F1F" opacity="0.8"/>
<!-- Connection dot left -->
<circle cx="492" cy="488" r="15" fill="#1F1F1F"/>
<!-- Connection dot right -->
<circle cx="996" cy="488" r="15" fill="#1F1F1F"/>

<!-- Arrow indicator -->
<path d="M744 476L752 488L744 500" stroke="#1F1F1F" stroke-width="6" stroke-linecap="round" stroke-linejoin="round" fill="none" opacity="0.8"/>
</svg>
