<svg width="1508" height="976" viewBox="0 0 1508 976" fill="none" xmlns="http://www.w3.org/2000/svg">
<defs>
  <linearGradient id="purpleGradient" x1="0%" y1="0%" x2="100%" y2="100%">
    <stop offset="0%" style="stop-color:#667eea;stop-opacity:1" />
    <stop offset="100%" style="stop-color:#764ba2;stop-opacity:1" />
  </linearGradient>
</defs>
<rect width="1508" height="976" fill="url(#purpleGradient)"/>

<!-- Left folder circle background -->
<circle opacity="0.2" cx="407" cy="488" r="180" fill="#1F1F1F"/>

<!-- Right folder circle background -->
<circle opacity="0.2" cx="1101" cy="488" r="180" fill="#1F1F1F"/>

<!-- Number badge circle -->
<circle cx="477" cy="254" r="46" fill="#141414" stroke="#667eea" stroke-width="10"/>

<!-- Number 4 -->
<path d="M476.621 275.667V267.541H460.674V260.175C461.1 258.836 461.638 257.335 462.287 255.671C462.936 253.987 463.656 252.202 464.448 250.315C465.239 248.408 466.071 246.429 466.943 244.38C467.836 242.311 468.729 240.221 469.622 238.111C470.535 235.98 471.417 233.86 472.269 231.75H485.082V260.175H489.039V267.541H485.082V275.667H476.621ZM468.13 260.449H476.865V238.293H476.652C476.063 239.896 475.445 241.509 474.795 243.132C474.146 244.755 473.497 246.358 472.848 247.941C472.198 249.523 471.579 251.055 470.991 252.536C470.403 253.997 469.855 255.377 469.348 256.676C468.861 257.954 468.455 259.131 468.13 260.206V260.449Z" fill="#667eea"/>

<!-- Left folder -->
<path opacity="0.9" d="M307 588C302.6 588 298.833 586.433 295.7 583.3C292.567 580.167 291 576.4 291 572V476C291 471.6 292.567 467.833 295.7 464.7C298.833 461.567 302.6 460 307 460H355L371 476H435C439.4 476 443.167 477.567 446.3 480.7C449.433 483.833 451 487.6 451 492V572C451 576.4 449.433 580.167 446.3 583.3C443.167 586.433 439.4 588 435 588H307ZM307 572H435V492H364.4L348.4 476H307V572Z" fill="#1F1F1F"/>

<!-- Right folder -->
<path opacity="0.9" d="M1001 588C996.6 588 992.833 586.433 989.7 583.3C986.567 580.167 985 576.4 985 572V476C985 471.6 986.567 467.833 989.7 464.7C992.833 461.567 996.6 460 1001 460H1049L1065 476H1129C1133.4 476 1137.17 477.567 1140.3 480.7C1143.43 483.833 1145 487.6 1145 492V572C1145 576.4 1143.43 580.167 1140.3 583.3C1137.17 586.433 1133.4 588 1129 588H1001ZM1001 572H1129V492H1058.4L1042.4 476H1001V572Z" fill="#1F1F1F"/>

<!-- Connection line -->
<rect x="451" y="518" width="534" height="10" rx="5" fill="#1F1F1F" opacity="0.8"/>
<!-- Connection dot left -->
<circle cx="456" cy="523" r="15" fill="#1F1F1F"/>
<!-- Connection dot right -->
<circle cx="980" cy="523" r="15" fill="#1F1F1F"/>
</svg>
