<svg width="1508" height="976" viewBox="0 0 1508 976" fill="none" xmlns="http://www.w3.org/2000/svg">
<rect width="1508" height="976" fill="#4AD399"/>
<circle opacity="0.2" cx="512" cy="488" r="141" fill="#141414" stroke="black" stroke-width="6"/>
<circle cx="610" cy="375" r="46" fill="#141414" stroke="#4AD399" stroke-width="10"/>
<g opacity="0.2">
<circle opacity="0.8" cx="976" cy="488" r="141" fill="#141414" stroke="black" stroke-width="6"/>
</g>
<path d="M609.621 396.667V388.541H593.674V381.175C594.1 379.836 594.638 378.335 595.287 376.671C595.936 374.987 596.656 373.202 597.448 371.315C598.239 369.408 599.071 367.429 599.943 365.38C600.836 363.311 601.729 361.221 602.622 359.111C603.535 356.98 604.417 354.86 605.269 352.75H618.082V381.175H622.039V388.541H618.082V396.667H609.621ZM601.13 381.449H609.865V359.293H609.652C609.063 360.896 608.445 362.509 607.795 364.132C607.146 365.755 606.497 367.358 605.848 368.941C605.198 370.523 604.579 372.055 603.991 373.536C603.403 374.997 602.855 376.377 602.348 377.676C601.861 378.954 601.455 380.131 601.13 381.206V381.449Z" fill="#4AD399"/>
<rect x="852" y="462.469" width="41.6283" height="41.6283" rx="20.8142" transform="rotate(90 852 462.469)" fill="#141414"/>
<rect width="10.4071" height="100.602" transform="translate(819.044 478.08) rotate(90)" fill="#141414"/>
<rect width="10.4071" height="71.115" transform="translate(727.115 478.08) rotate(90)" fill="#141414"/>
<path opacity="0.8" d="M448 548C443.6 548 439.833 546.433 436.7 543.3C433.567 540.167 432 536.4 432 532V436C432 431.6 433.567 427.833 436.7 424.7C439.833 421.567 443.6 420 448 420H496L512 436H576C580.4 436 584.167 437.567 587.3 440.7C590.433 443.833 592 447.6 592 452V532C592 536.4 590.433 540.167 587.3 543.3C584.167 546.433 580.4 548 576 548H448ZM448 532H576V452H505.4L489.4 436H448V532Z" fill="#1F1F1F"/>
<path opacity="0.8" d="M912 548C907.6 548 903.833 546.433 900.7 543.3C897.567 540.167 896 536.4 896 532V436C896 431.6 897.567 427.833 900.7 424.7C903.833 421.567 907.6 420 912 420H960L976 436H1040C1044.4 436 1048.17 437.567 1051.3 440.7C1054.43 443.833 1056 447.6 1056 452V532C1056 536.4 1054.43 540.167 1051.3 543.3C1048.17 546.433 1044.4 548 1040 548H912ZM912 532H1040V452H969.4L953.4 436H912V532Z" fill="#1F1F1F"/>
</svg>
