<svg width="1508" height="976" viewBox="0 0 1508 976" fill="none" xmlns="http://www.w3.org/2000/svg">
<rect width="1508" height="976" fill="#4782ED"/>
<circle opacity="0.2" cx="428" cy="485" r="142" fill="#141414"/>
<path opacity="0.6" d="M661.756 591.058V568.352H684.652C691.049 568.352 695.736 566.357 698.713 562.367C701.753 558.377 703.273 552.328 703.273 544.221V543.936C703.273 535.702 701.753 529.654 698.713 525.79C695.736 521.863 691.081 519.9 684.747 519.9H661.756V496.909H689.877C698.871 496.909 706.471 498.809 712.678 502.609C718.885 506.409 723.572 511.856 726.739 518.95C729.969 525.98 731.584 534.309 731.584 543.936V544.126C731.584 553.816 729.969 562.177 726.739 569.207C723.572 576.174 718.885 581.558 712.678 585.358C706.471 589.158 698.871 591.058 689.877 591.058H661.756ZM647.79 634V496.909H675.722V634H647.79ZM778.421 635.995C769.807 635.995 762.46 634.032 756.38 630.105C750.363 626.115 745.771 620.193 742.605 612.339C739.438 604.485 737.854 594.732 737.854 583.078V582.888C737.854 571.487 739.469 561.892 742.7 554.101C745.93 546.248 750.553 540.294 756.57 536.241C762.65 532.187 769.934 530.16 778.421 530.16C786.908 530.16 794.16 532.187 800.177 536.241C806.257 540.294 810.913 546.248 814.143 554.101C817.373 561.892 818.988 571.487 818.988 582.888V583.078C818.988 594.732 817.404 604.485 814.238 612.339C811.071 620.193 806.479 626.115 800.462 630.105C794.445 634.032 787.098 635.995 778.421 635.995ZM778.421 614.049C781.271 614.049 783.646 612.972 785.546 610.819C787.51 608.666 788.967 605.309 789.917 600.749C790.93 596.188 791.437 590.33 791.437 583.173V582.983C791.437 575.889 790.93 570.094 789.917 565.597C788.967 561.037 787.51 557.68 785.546 555.527C783.646 553.31 781.271 552.201 778.421 552.201C775.634 552.201 773.259 553.31 771.296 555.527C769.332 557.68 767.844 561.037 766.831 565.597C765.881 570.094 765.406 575.889 765.406 582.983V583.173C765.406 590.33 765.881 596.188 766.831 600.749C767.844 605.309 769.332 608.666 771.296 610.819C773.259 612.972 775.634 614.049 778.421 614.049ZM830.673 634V531.966H857.75V548.591H858.32C859.523 541.688 861.676 536.906 864.78 534.246C867.947 531.522 871.747 530.16 876.18 530.16C877.574 530.16 878.84 530.255 879.981 530.445C881.184 530.635 882.324 530.92 883.401 531.3V556.097C882.134 555.59 880.772 555.178 879.316 554.862C877.859 554.545 876.339 554.387 874.755 554.387C870.955 554.387 867.788 555.337 865.255 557.237C862.785 559.073 860.916 561.797 859.65 565.407C858.383 568.954 857.75 573.324 857.75 578.518V634H830.673ZM929.763 635.71C919.692 635.71 912.06 633.367 906.867 628.68C901.736 623.993 899.171 616.424 899.171 605.974V553.151H888.436V531.966H899.171V507.264H926.533V531.966H940.973V553.151H926.533V603.694C926.533 607.684 927.324 610.502 928.908 612.149C930.554 613.796 933.246 614.619 936.983 614.619C937.806 614.619 938.566 614.587 939.263 614.524C940.023 614.461 940.72 614.397 941.353 614.334V634.38C939.833 634.76 938.091 635.077 936.128 635.33C934.165 635.583 932.043 635.71 929.763 635.71ZM957.884 634V553.151H946.388V531.966H957.884V523.035C957.884 517.018 958.961 511.951 961.114 507.834C963.331 503.654 966.624 500.519 970.995 498.429C975.428 496.276 981.033 495.199 987.81 495.199C990.66 495.199 993.131 495.326 995.221 495.579C997.311 495.769 999.116 496.054 1000.64 496.434V514.675C999.939 514.548 999.116 514.453 998.166 514.39C997.216 514.326 996.139 514.295 994.936 514.295C991.452 514.295 988.792 515.118 986.955 516.765C985.182 518.412 984.295 520.977 984.295 524.46V531.966H1000.54V553.151H984.96V634H957.884ZM1043.29 635.995C1034.68 635.995 1027.33 634.032 1021.25 630.105C1015.23 626.115 1010.64 620.193 1007.48 612.339C1004.31 604.485 1002.73 594.732 1002.73 583.078V582.888C1002.73 571.487 1004.34 561.892 1007.57 554.101C1010.8 546.248 1015.42 540.294 1021.44 536.241C1027.52 532.187 1034.81 530.16 1043.29 530.16C1051.78 530.16 1059.03 532.187 1065.05 536.241C1071.13 540.294 1075.78 546.248 1079.01 554.101C1082.24 561.892 1083.86 571.487 1083.86 582.888V583.078C1083.86 594.732 1082.28 604.485 1079.11 612.339C1075.94 620.193 1071.35 626.115 1065.33 630.105C1059.32 634.032 1051.97 635.995 1043.29 635.995ZM1043.29 614.049C1046.14 614.049 1048.52 612.972 1050.42 610.819C1052.38 608.666 1053.84 605.309 1054.79 600.749C1055.8 596.188 1056.31 590.33 1056.31 583.173V582.983C1056.31 575.889 1055.8 570.094 1054.79 565.597C1053.84 561.037 1052.38 557.68 1050.42 555.527C1048.52 553.31 1046.14 552.201 1043.29 552.201C1040.51 552.201 1038.13 553.31 1036.17 555.527C1034.2 557.68 1032.72 561.037 1031.7 565.597C1030.75 570.094 1030.28 575.889 1030.28 582.983V583.173C1030.28 590.33 1030.75 596.188 1031.7 600.749C1032.72 605.309 1034.2 608.666 1036.17 610.819C1038.13 612.972 1040.51 614.049 1043.29 614.049ZM1095.64 634V496.909H1122.72V634H1095.64ZM1136.87 634V531.966H1163.95V634H1136.87ZM1150.36 521.42C1146.44 521.42 1143.05 519.995 1140.2 517.145C1137.41 514.295 1136.02 510.875 1136.02 506.884C1136.02 502.894 1137.41 499.474 1140.2 496.624C1143.05 493.774 1146.44 492.349 1150.36 492.349C1154.35 492.349 1157.74 493.774 1160.53 496.624C1163.31 499.474 1164.71 502.894 1164.71 506.884C1164.71 510.875 1163.31 514.295 1160.53 517.145C1157.74 519.995 1154.35 521.42 1150.36 521.42ZM1216.2 635.995C1207.59 635.995 1200.24 634.032 1194.16 630.105C1188.14 626.115 1183.55 620.193 1180.38 612.339C1177.22 604.485 1175.63 594.732 1175.63 583.078V582.888C1175.63 571.487 1177.25 561.892 1180.48 554.101C1183.71 546.248 1188.33 540.294 1194.35 536.241C1200.43 532.187 1207.71 530.16 1216.2 530.16C1224.69 530.16 1231.94 532.187 1237.96 536.241C1244.04 540.294 1248.69 546.248 1251.92 554.101C1255.15 561.892 1256.77 571.487 1256.77 582.888V583.078C1256.77 594.732 1255.18 604.485 1252.02 612.339C1248.85 620.193 1244.26 626.115 1238.24 630.105C1232.22 634.032 1224.88 635.995 1216.2 635.995ZM1216.2 614.049C1219.05 614.049 1221.43 612.972 1223.33 610.819C1225.29 608.666 1226.75 605.309 1227.7 600.749C1228.71 596.188 1229.22 590.33 1229.22 583.173V582.983C1229.22 575.889 1228.71 570.094 1227.7 565.597C1226.75 561.037 1225.29 557.68 1223.33 555.527C1221.43 553.31 1219.05 552.201 1216.2 552.201C1213.41 552.201 1211.04 553.31 1209.07 555.527C1207.11 557.68 1205.62 561.037 1204.61 565.597C1203.66 570.094 1203.18 575.889 1203.18 582.983V583.173C1203.18 590.33 1203.66 596.188 1204.61 600.749C1205.62 605.309 1207.11 608.666 1209.07 610.819C1211.04 612.972 1213.41 614.049 1216.2 614.049Z" fill="#141414"/>
<path d="M607.79 480V342.909H644.462L666.408 438.863H666.978L688.924 342.909H725.596V480H700.894V385.186H687.689L708.97 346.329L677.998 480H655.482L624.416 346.329L645.697 385.186H632.491V480H607.79ZM751.532 513.726C749.442 513.726 747.415 513.631 745.451 513.441C743.551 513.315 741.936 513.156 740.606 512.966V492.161C741.366 492.287 742.221 492.382 743.171 492.446C744.121 492.509 745.135 492.541 746.211 492.541C749.885 492.541 752.767 491.844 754.857 490.45C756.947 489.12 758.499 486.967 759.512 483.99L760.177 482.28L733.576 377.966H762.267L778.798 477.53L774.523 461.759H778.893L774.713 477.53L791.053 377.966H819.555L794.854 478.1C792.89 486.65 790.008 493.522 786.208 498.716C782.408 503.973 777.626 507.773 771.863 510.116C766.162 512.523 759.385 513.726 751.532 513.726Z" fill="#141414"/>
<g opacity="0.8">
<path d="M360 553C355.325 553 351.323 551.335 347.994 548.006C344.665 544.677 343 540.675 343 536V434C343 429.325 344.665 425.323 347.994 421.994C351.323 418.665 355.325 417 360 417H496C500.675 417 504.677 418.665 508.006 421.994C511.335 425.323 513 429.325 513 434V536C513 540.675 511.335 544.677 508.006 548.006C504.677 551.335 500.675 553 496 553H360ZM360 536H449.25V506.25H360V536ZM466.25 536H496V459.5H466.25V536ZM360 489.25H449.25V459.5H360V489.25Z" fill="#1F1F1F"/>
</g>
</svg>
