<svg width="1508" height="976" viewBox="0 0 1508 976" fill="none" xmlns="http://www.w3.org/2000/svg">
<rect width="1508" height="976" fill="#4782ED"/>
<circle opacity="0.2" cx="617" cy="488" r="142" fill="#141414"/>
<g opacity="0.8">
<path d="M549 556C544.325 556 540.323 554.335 536.994 551.006C533.665 547.677 532 543.675 532 539V437C532 432.325 533.665 428.323 536.994 424.994C540.323 421.665 544.325 420 549 420H685C689.675 420 693.677 421.665 697.006 424.994C700.335 428.323 702 432.325 702 437V539C702 543.675 700.335 547.677 697.006 551.006C693.677 554.335 689.675 556 685 556H549ZM549 539H638.25V509.25H549V539ZM655.25 539H685V462.5H655.25V539ZM549 492.25H638.25V462.5H549V492.25Z" fill="#1F1F1F"/>
</g>
<path opacity="0.6" d="M801.785 501.388V473.837L879.879 442.011V466.142L804.161 495.403V479.347L879.879 508.608V533.025L801.785 501.388ZM935.171 405.909L913.51 576.251H889.664L911.42 405.909H935.171ZM1023.15 473.837V501.388L945.052 529.414V505.283L1021.53 479.442V496.163L945.052 470.322V445.716L1023.15 473.837Z" fill="#141414"/>
</svg>
