<svg width="1508" height="976" viewBox="0 0 1508 976" fill="none" xmlns="http://www.w3.org/2000/svg">
<defs>
  <linearGradient id="greenGradient" x1="0%" y1="0%" x2="100%" y2="100%">
    <stop offset="0%" style="stop-color:#43e97b;stop-opacity:1" />
    <stop offset="100%" style="stop-color:#38f9d7;stop-opacity:1" />
  </linearGradient>
</defs>
<rect width="1508" height="976" fill="url(#greenGradient)"/>

<!-- Left agent circle background -->
<circle opacity="0.2" cx="407" cy="488" r="180" fill="#1F1F1F"/>

<!-- Center agent circle background -->
<circle opacity="0.2" cx="754" cy="488" r="180" fill="#1F1F1F"/>

<!-- Right agent circle background -->
<circle opacity="0.2" cx="1101" cy="488" r="180" fill="#1F1F1F"/>

<!-- Number badge circle -->
<circle cx="477" cy="254" r="46" fill="#141414" stroke="#43e97b" stroke-width="10"/>

<!-- Number 5h displayed as "5" -->
<text x="462" y="272" font-family="system-ui, -apple-system" font-size="36" font-weight="700" fill="#43e97b">5</text>

<!-- Left AI agent -->
<g opacity="0.9">
  <circle cx="407" cy="488" r="50" fill="#1F1F1F"/>
  <circle cx="407" cy="488" r="35" fill="#43e97b" opacity="0.3"/>
  <circle cx="407" cy="488" r="20" fill="#43e97b"/>
  <!-- Gear teeth -->
  <circle cx="407" cy="448" r="8" fill="#43e97b" opacity="0.6"/>
  <circle cx="437" cy="463" r="8" fill="#43e97b" opacity="0.6"/>
  <circle cx="437" cy="513" r="8" fill="#43e97b" opacity="0.6"/>
  <circle cx="407" cy="528" r="8" fill="#43e97b" opacity="0.6"/>
  <circle cx="377" cy="513" r="8" fill="#43e97b" opacity="0.6"/>
  <circle cx="377" cy="463" r="8" fill="#43e97b" opacity="0.6"/>
</g>

<!-- Center AI agent -->
<g opacity="0.9">
  <circle cx="754" cy="488" r="50" fill="#1F1F1F"/>
  <circle cx="754" cy="488" r="35" fill="#43e97b" opacity="0.3"/>
  <circle cx="754" cy="488" r="20" fill="#43e97b"/>
  <!-- Gear teeth -->
  <circle cx="754" cy="448" r="8" fill="#43e97b" opacity="0.6"/>
  <circle cx="784" cy="463" r="8" fill="#43e97b" opacity="0.6"/>
  <circle cx="784" cy="513" r="8" fill="#43e97b" opacity="0.6"/>
  <circle cx="754" cy="528" r="8" fill="#43e97b" opacity="0.6"/>
  <circle cx="724" cy="513" r="8" fill="#43e97b" opacity="0.6"/>
  <circle cx="724" cy="463" r="8" fill="#43e97b" opacity="0.6"/>
</g>

<!-- Right AI agent -->
<g opacity="0.9">
  <circle cx="1101" cy="488" r="50" fill="#1F1F1F"/>
  <circle cx="1101" cy="488" r="35" fill="#43e97b" opacity="0.3"/>
  <circle cx="1101" cy="488" r="20" fill="#43e97b"/>
  <!-- Gear teeth -->
  <circle cx="1101" cy="448" r="8" fill="#43e97b" opacity="0.6"/>
  <circle cx="1131" cy="463" r="8" fill="#43e97b" opacity="0.6"/>
  <circle cx="1131" cy="513" r="8" fill="#43e97b" opacity="0.6"/>
  <circle cx="1101" cy="528" r="8" fill="#43e97b" opacity="0.6"/>
  <circle cx="1071" cy="513" r="8" fill="#43e97b" opacity="0.6"/>
  <circle cx="1071" cy="463" r="8" fill="#43e97b" opacity="0.6"/>
</g>

<!-- Connection line left to center -->
<rect x="457" y="483" width="247" height="10" rx="5" fill="#1F1F1F" opacity="0.8"/>
<circle cx="462" cy="488" r="15" fill="#1F1F1F"/>
<circle cx="699" cy="488" r="15" fill="#1F1F1F"/>

<!-- Connection line center to right -->
<rect x="804" y="483" width="247" height="10" rx="5" fill="#1F1F1F" opacity="0.8"/>
<circle cx="809" cy="488" r="15" fill="#1F1F1F"/>
<circle cx="1046" cy="488" r="15" fill="#1F1F1F"/>

<!-- Arrow indicators -->
<path d="M580 476L588 488L580 500" stroke="#1F1F1F" stroke-width="6" stroke-linecap="round" stroke-linejoin="round" fill="none" opacity="0.8"/>
<path d="M927 476L935 488L927 500" stroke="#1F1F1F" stroke-width="6" stroke-linecap="round" stroke-linejoin="round" fill="none" opacity="0.8"/>
</svg>
