<svg width="66" height="43" viewBox="0 0 66 43" fill="none" xmlns="http://www.w3.org/2000/svg">
<path d="M38.4093 43L38.6654 22.1342C38.7081 18.1175 39.5189 14.7139 41.098 11.9233C42.677 9.09046 44.6615 6.80728 47.0514 5.07375C49.484 3.29794 52.0233 2.00836 54.6693 1.20501C57.3579 0.401672 59.8332 0 62.0951 0C63.6314 0 64.9331 0.147984 66 0.443953L65.4879 10.1475C62.3725 10.5703 60.1959 11.7542 58.9583 13.6991C57.7207 15.6441 56.9311 17.8004 56.5897 20.1681H65.4879L64.5917 43H38.4093ZM0 43L0.256062 22.1342C0.298739 18.1175 1.1096 14.7139 2.68865 11.9233C4.2677 9.09046 6.25218 6.80728 8.6421 5.07375C11.0747 3.29794 13.614 2.00836 16.2599 1.20501C18.9486 0.401672 21.4239 0 23.6857 0C25.2221 0 26.5238 0.147984 27.5907 0.443953L27.0786 10.1475C23.9631 10.5703 21.7866 11.7542 20.549 13.6991C19.3113 15.6441 18.5218 17.8004 18.1804 20.1681H27.0786L26.1823 43H0Z" fill="#AB6FE9"/>
<path d="M38.4093 43L38.6654 22.1342C38.7081 18.1175 39.5189 14.7139 41.098 11.9233C42.677 9.09046 44.6615 6.80728 47.0514 5.07375C49.484 3.29794 52.0233 2.00836 54.6693 1.20501C57.3579 0.401672 59.8332 0 62.0951 0C63.6314 0 64.9331 0.147984 66 0.443953L65.4879 10.1475C62.3725 10.5703 60.1959 11.7542 58.9583 13.6991C57.7207 15.6441 56.9311 17.8004 56.5897 20.1681H65.4879L64.5917 43H38.4093ZM0 43L0.256062 22.1342C0.298739 18.1175 1.1096 14.7139 2.68865 11.9233C4.2677 9.09046 6.25218 6.80728 8.6421 5.07375C11.0747 3.29794 13.614 2.00836 16.2599 1.20501C18.9486 0.401672 21.4239 0 23.6857 0C25.2221 0 26.5238 0.147984 27.5907 0.443953L27.0786 10.1475C23.9631 10.5703 21.7866 11.7542 20.549 13.6991C19.3113 15.6441 18.5218 17.8004 18.1804 20.1681H27.0786L26.1823 43H0Z" fill="#FDCD45"/>
</svg>
