<svg width="1508" height="976" viewBox="0 0 1508 976" fill="none" xmlns="http://www.w3.org/2000/svg">
<defs>
  <linearGradient id="pinkGradient" x1="0%" y1="0%" x2="100%" y2="100%">
    <stop offset="0%" style="stop-color:#f093fb;stop-opacity:1" />
    <stop offset="100%" style="stop-color:#f5576c;stop-opacity:1" />
  </linearGradient>
</defs>
<rect width="1508" height="976" fill="url(#pinkGradient)"/>

<!-- Left token circle background -->
<circle opacity="0.2" cx="407" cy="488" r="180" fill="#1F1F1F"/>

<!-- Right token circle background -->
<circle opacity="0.2" cx="1101" cy="488" r="180" fill="#1F1F1F"/>

<!-- Number badge circle -->
<circle cx="477" cy="254" r="46" fill="#141414" stroke="#f093fb" stroke-width="10"/>

<!-- Number 320 displayed as "320+" in compact form -->
<text x="455" y="270" font-family="system-ui, -apple-system" font-size="28" font-weight="700" fill="#f093fb">3</text>

<!-- Left token variable box -->
<g opacity="0.9">
  <rect x="307" y="440" width="200" height="96" rx="12" fill="#1F1F1F"/>
  <rect x="323" y="456" width="24" height="24" rx="12" fill="#f093fb"/>
  <rect x="355" y="462" width="120" height="12" rx="6" fill="#f093fb" opacity="0.6"/>
  <rect x="323" y="496" width="168" height="8" rx="4" fill="#f093fb" opacity="0.4"/>
  <rect x="323" y="512" width="140" height="8" rx="4" fill="#f093fb" opacity="0.4"/>
</g>

<!-- Right token variable box -->
<g opacity="0.9">
  <rect x="1001" y="440" width="200" height="96" rx="12" fill="#1F1F1F"/>
  <rect x="1017" y="456" width="24" height="24" rx="12" fill="#f093fb"/>
  <rect x="1049" y="462" width="120" height="12" rx="6" fill="#f093fb" opacity="0.6"/>
  <rect x="1017" y="496" width="168" height="8" rx="4" fill="#f093fb" opacity="0.4"/>
  <rect x="1017" y="512" width="140" height="8" rx="4" fill="#f093fb" opacity="0.4"/>
</g>

<!-- Connection line -->
<rect x="507" y="483" width="494" height="10" rx="5" fill="#1F1F1F" opacity="0.8"/>
<!-- Connection dot left -->
<circle cx="512" cy="488" r="15" fill="#1F1F1F"/>
<!-- Connection dot right -->
<circle cx="996" cy="488" r="15" fill="#1F1F1F"/>

<!-- Arrow indicator -->
<path d="M754 476L762 488L754 500" stroke="#1F1F1F" stroke-width="6" stroke-linecap="round" stroke-linejoin="round" fill="none" opacity="0.8"/>
</svg>
