<svg width="1508" height="976" viewBox="0 0 1508 976" fill="none" xmlns="http://www.w3.org/2000/svg">
<rect width="1508" height="976" fill="#4782ED"/>
<g opacity="0.2">
<rect x="404" y="184" width="700" height="122" rx="61" fill="black"/>
<path d="M448 222.6V217H504V222.6H448ZM448 273V267.4H504V273H448ZM462 236.6V228.2H490V236.6H462ZM462 261.8V253.4H490V261.8H462Z" fill="#4782ED"/>
</g>
<g opacity="0.4">
<rect x="404" y="346" width="700" height="122" rx="61" fill="black"/>
<path d="M470.62 429.605L453.4 412.45C452.933 411.985 452.583 411.474 452.35 410.916C452.117 410.358 452 409.777 452 409.172C452 408.568 452.117 407.987 452.35 407.429C452.583 406.871 452.933 406.36 453.4 405.895L469.5 389.925L462.08 382.533L466.42 378L494.42 405.895C494.887 406.36 495.225 406.871 495.435 407.429C495.645 407.987 495.75 408.568 495.75 409.172C495.75 409.777 495.645 410.358 495.435 410.916C495.225 411.474 494.887 411.985 494.42 412.45L477.2 429.605C476.733 430.07 476.22 430.419 475.66 430.651C475.1 430.884 474.517 431 473.91 431C473.303 431 472.72 430.884 472.16 430.651C471.6 430.419 471.087 430.07 470.62 429.605ZM473.91 394.318L458.93 409.242H488.89L473.91 394.318ZM501.84 431C500.16 431 498.737 430.407 497.57 429.222C496.403 428.036 495.82 426.583 495.82 424.863C495.82 423.608 496.135 422.422 496.765 421.307C497.395 420.191 498.107 419.098 498.9 418.029L501.84 414.263L504.92 418.029C505.667 419.098 506.367 420.191 507.02 421.307C507.673 422.422 508 423.608 508 424.863C508 426.583 507.393 428.036 506.18 429.222C504.967 430.407 503.52 431 501.84 431Z" fill="#4782ED"/>
</g>
<rect x="742" y="395" width="24" height="24" rx="12" fill="#4782ED"/>
<rect width="6" height="58" transform="translate(751 414)" fill="#4782ED"/>
<g opacity="0.8">
<rect width="6" height="41" transform="translate(751 467)" fill="white"/>
<rect width="6" height="41" transform="translate(751 467)" fill="#0E1A2F"/>
</g>
<g opacity="0.6">
<rect x="404" y="508" width="700" height="122" rx="61" fill="black"/>
<path d="M452.667 591V581.667H499.333V591H452.667ZM460.833 574.667L473.083 542H478.917L491.167 574.667H485.567L482.65 566.267H469.467L466.433 574.667H460.833ZM471.1 561.6H480.9L476.117 548.067H475.883L471.1 561.6Z" fill="#4782ED"/>
</g>
<rect x="742" y="558" width="24" height="24" rx="12" fill="#4782ED"/>
<rect width="6" height="58" transform="translate(751 577)" fill="#4782ED"/>
<g opacity="0.8">
<rect width="6" height="41" transform="translate(751 630)" fill="white"/>
<rect width="6" height="41" transform="translate(751 630)" fill="#0E1A2F"/>
</g>
<g opacity="0.8">
<rect x="668" y="670" width="172" height="172" rx="86" fill="black"/>
</g>
<rect x="742" y="233" width="24" height="24" rx="12" fill="#4782ED"/>
<rect width="6" height="58" transform="translate(751 252)" fill="#4782ED"/>
<g opacity="0.8">
<rect width="6" height="41" transform="translate(751 305)" fill="white"/>
<rect width="6" height="41" transform="translate(751 305)" fill="#0E1A2F"/>
</g>
</svg>
