<svg width="1508" height="976" viewBox="0 0 1508 976" fill="none" xmlns="http://www.w3.org/2000/svg">
<rect width="1508" height="976" fill="#E96F6F"/>
<path d="M463.726 484L432.565 346.909H461.636L481.492 454.169H481.967L501.823 346.909H530.894L499.733 484H463.726ZM541.345 484V346.909H569.276V484H541.345ZM598.822 484V462.529H623.999C629.825 462.529 634.259 460.946 637.299 457.779C640.403 454.549 641.954 449.608 641.954 442.958V442.768C641.954 438.398 641.258 434.756 639.864 431.843C638.534 428.866 636.476 426.649 633.689 425.192C630.902 423.672 627.419 422.912 623.238 422.912H598.822V403.911H622.193C628.084 403.911 632.422 402.423 635.209 399.446C638.059 396.469 639.484 391.973 639.484 385.956V385.766C639.484 380.002 638.154 375.664 635.494 372.75C632.834 369.837 629.002 368.38 623.999 368.38H598.822V346.909H631.314C639.104 346.909 645.659 348.302 650.98 351.089C656.3 353.876 660.29 357.803 662.95 362.87C665.61 367.873 666.94 373.763 666.94 380.54V380.73C666.94 386.431 665.927 391.403 663.9 395.646C661.874 399.89 659.087 403.341 655.54 406.002C651.993 408.662 647.94 410.435 643.379 411.322V411.892C648.51 412.462 653.133 414.045 657.25 416.642C661.367 419.175 664.597 422.881 666.94 427.758C669.347 432.571 670.551 438.556 670.551 445.713V445.903C670.551 453.757 668.999 460.534 665.895 466.234C662.855 471.934 658.422 476.336 652.595 479.44C646.831 482.48 639.928 484 631.884 484H598.822ZM584.857 484V346.909H612.788V484H584.857ZM682.141 484V346.909H752.444V370.85H710.072V403.626H750.164V425.857H710.072V460.059H752.444V484H682.141Z" fill="#141414"/>
<path opacity="0.6" d="M541.785 587.388V559.837L619.879 528.011V552.142L544.161 581.403V565.347L619.879 594.608V619.025L541.785 587.388ZM670.611 630.995C662.694 630.995 655.854 629.095 650.09 625.295C644.327 621.495 639.893 615.668 636.79 607.814C633.686 599.96 632.134 590.017 632.134 577.983V577.698C632.134 566.044 633.654 556.322 636.695 548.531C639.735 540.741 644.105 534.883 649.805 530.956C655.569 527.029 662.504 525.065 670.611 525.065C678.338 525.065 684.83 526.712 690.087 530.006C695.407 533.299 699.461 537.859 702.247 543.686C705.098 549.513 706.649 556.29 706.903 564.017L707.093 567.437H682.202L682.107 564.207C681.727 559.014 680.65 554.865 678.876 551.762C677.103 548.595 674.601 547.011 671.371 547.011C668.774 547.011 666.589 548.088 664.816 550.242C663.106 552.395 661.839 555.752 661.016 560.312C660.192 564.809 659.781 570.604 659.781 577.698V578.078C659.781 585.361 660.192 591.283 661.016 595.844C661.839 600.404 663.106 603.761 664.816 605.914C666.589 608.004 668.774 609.049 671.371 609.049C674.665 609.049 677.166 607.497 678.876 604.394C680.65 601.29 681.727 597.142 682.107 591.948L682.202 588.718H707.093L706.903 592.138C706.586 599.802 705.003 606.579 702.152 612.469C699.366 618.296 695.344 622.856 690.087 626.15C684.83 629.38 678.338 630.995 670.611 630.995ZM756.115 630.995C747.501 630.995 740.154 629.032 734.074 625.105C728.057 621.115 723.465 615.193 720.298 607.339C717.131 599.485 715.548 589.732 715.548 578.078V577.888C715.548 566.487 717.163 556.892 720.393 549.101C723.623 541.248 728.247 535.294 734.264 531.241C740.344 527.187 747.628 525.16 756.115 525.16C764.602 525.16 771.854 527.187 777.871 531.241C783.951 535.294 788.606 541.248 791.836 549.101C795.067 556.892 796.682 566.487 796.682 577.888V578.078C796.682 589.732 795.098 599.485 791.931 607.339C788.765 615.193 784.173 621.115 778.156 625.105C772.139 629.032 764.792 630.995 756.115 630.995ZM756.115 609.049C758.965 609.049 761.34 607.972 763.24 605.819C765.204 603.666 766.66 600.309 767.61 595.749C768.624 591.188 769.13 585.33 769.13 578.173V577.983C769.13 570.889 768.624 565.094 767.61 560.597C766.66 556.037 765.204 552.68 763.24 550.527C761.34 548.31 758.965 547.201 756.115 547.201C753.328 547.201 750.953 548.31 748.99 550.527C747.026 552.68 745.538 556.037 744.524 560.597C743.574 565.094 743.099 570.889 743.099 577.983V578.173C743.099 585.33 743.574 591.188 744.524 595.749C745.538 600.309 747.026 603.666 748.99 605.819C750.953 607.972 753.328 609.049 756.115 609.049ZM836.773 630.33C830.25 630.33 824.708 628.398 820.148 624.535C815.587 620.671 812.104 614.876 809.697 607.149C807.29 599.422 806.087 589.668 806.087 577.888V577.603C806.087 565.886 807.29 556.163 809.697 548.436C812.167 540.709 815.651 534.914 820.148 531.051C824.645 527.124 830.091 525.16 836.488 525.16C840.542 525.16 844.057 525.92 847.034 527.441C850.011 528.897 852.512 530.861 854.539 533.331C856.629 535.738 858.244 538.429 859.384 541.406H859.859V491.909H887.031V629H859.859V614.274H859.384C858.181 617.568 856.534 620.418 854.444 622.825C852.354 625.232 849.821 627.1 846.844 628.43C843.93 629.697 840.574 630.33 836.773 630.33ZM846.844 607.054C849.631 607.054 852.006 605.977 853.969 603.824C855.933 601.67 857.389 598.472 858.339 594.228C859.353 589.922 859.859 584.538 859.859 578.078V577.983C859.859 571.396 859.353 565.949 858.339 561.642C857.389 557.272 855.933 554.01 853.969 551.857C852.006 549.64 849.631 548.531 846.844 548.531C844.057 548.531 841.682 549.608 839.719 551.762C837.755 553.915 836.235 557.177 835.158 561.547C834.145 565.854 833.638 571.269 833.638 577.793V577.983C833.638 584.443 834.145 589.827 835.158 594.133C836.172 598.44 837.66 601.67 839.624 603.824C841.65 605.977 844.057 607.054 846.844 607.054ZM937.573 630.995C929.339 630.995 922.309 629.032 916.482 625.105C910.718 621.178 906.316 615.288 903.276 607.434C900.236 599.58 898.716 589.763 898.716 577.983V577.888C898.716 566.171 900.204 556.417 903.181 548.626C906.221 540.836 910.592 534.978 916.292 531.051C921.992 527.061 928.864 525.065 936.908 525.065C944.888 525.065 951.665 527.061 957.239 531.051C962.812 535.041 967.056 540.899 969.969 548.626C972.946 556.29 974.434 565.696 974.434 576.843V585.108H912.682V568.007H961.704L948.783 583.778V570.572C948.783 565.126 948.308 560.597 947.358 556.987C946.472 553.313 945.141 550.558 943.368 548.721C941.658 546.821 939.6 545.871 937.193 545.871C934.723 545.871 932.601 546.821 930.827 548.721C929.117 550.622 927.787 553.408 926.837 557.082C925.951 560.692 925.507 565.189 925.507 570.572V584.063C925.507 589.953 926.014 594.83 927.027 598.694C928.041 602.494 929.466 605.344 931.303 607.244C933.139 609.144 935.356 610.094 937.953 610.094C939.98 610.094 941.753 609.587 943.273 608.574C944.856 607.561 946.123 606.136 947.073 604.299C948.023 602.462 948.688 600.277 949.068 597.744L949.353 596.129H973.769L973.484 598.314C972.978 603.064 971.838 607.402 970.064 611.329C968.291 615.256 965.916 618.708 962.939 621.685C959.962 624.661 956.352 626.973 952.108 628.62C947.865 630.203 943.02 630.995 937.573 630.995ZM1066.59 559.837V587.388L988.495 615.414V591.283L1064.97 565.442V582.163L988.495 556.322V531.716L1066.59 559.837Z" fill="#141414"/>
</svg>
